<svg xmlns="http://www.w3.org/2000/svg" xmlns:xlink="http://www.w3.org/1999/xlink" width="500" zoomAndPan="magnify" viewBox="0 0 375 374.999991" height="500" preserveAspectRatio="xMidYMid meet" version="1.0"><defs><g/><clipPath id="0626bdcf2b"><path d="M 11.597656 11.597656 L 363.347656 11.597656 L 363.347656 363.347656 L 11.597656 363.347656 Z M 11.597656 11.597656 " clip-rule="nonzero"/></clipPath><clipPath id="516561edd8"><path d="M 34.457031 34.074219 L 341.207031 34.074219 L 341.207031 340.824219 L 34.457031 340.824219 Z M 34.457031 34.074219 " clip-rule="nonzero"/></clipPath><clipPath id="e4221c209f"><path d="M 76.214844 68 L 291.464844 68 L 291.464844 227 L 76.214844 227 Z M 76.214844 68 " clip-rule="nonzero"/></clipPath></defs><g clip-path="url(#0626bdcf2b)"><path fill="#293133" d="M 187.496094 363.394531 C 90.316406 363.394531 11.597656 284.128906 11.597656 187.496094 C 11.597656 90.859375 90.316406 11.597656 187.496094 11.597656 C 284.671875 11.597656 363.394531 90.316406 363.394531 187.496094 C 363.394531 284.671875 284.128906 363.394531 187.496094 363.394531 Z M 187.496094 22.453125 C 96.289062 22.453125 22.453125 96.289062 22.453125 187.496094 C 22.453125 278.703125 96.289062 352.535156 187.496094 352.535156 C 278.703125 352.535156 352.535156 278.703125 352.535156 187.496094 C 352.535156 96.289062 278.160156 22.453125 187.496094 22.453125 Z M 187.496094 22.453125 " fill-opacity="1" fill-rule="nonzero"/></g><g clip-path="url(#516561edd8)"><path fill="#8fafc4" d="M 187.878906 340.917969 C 103.308594 340.917969 34.457031 272.066406 34.457031 187.496094 C 34.457031 102.925781 103.308594 34.074219 187.878906 34.074219 C 272.449219 34.074219 341.300781 102.925781 341.300781 187.496094 C 341.300781 272.066406 272.449219 340.917969 187.878906 340.917969 Z M 187.878906 36.339844 C 104.519531 36.339844 36.726562 104.132812 36.726562 187.496094 C 36.726562 270.855469 104.519531 338.648438 187.878906 338.648438 C 271.242188 338.648438 339.035156 270.855469 339.035156 187.496094 C 339.035156 104.132812 271.242188 36.339844 187.878906 36.339844 Z M 187.878906 36.339844 " fill-opacity="1" fill-rule="nonzero"/></g><path fill="#753624" d="M 243.285156 233.664062 L 124.234375 233.664062 C 122.3125 233.664062 120.730469 235.246094 120.730469 237.167969 C 120.730469 239.085938 122.3125 240.667969 124.234375 240.667969 L 243.285156 240.667969 C 245.203125 240.667969 246.785156 239.085938 246.785156 237.167969 C 246.785156 235.246094 245.203125 233.664062 243.285156 233.664062 Z M 243.285156 233.664062 " fill-opacity="1" fill-rule="evenodd"/><g clip-path="url(#e4221c209f)"><path fill="#283032" d="M 170.21875 149.414062 C 170.21875 151.070312 168.863281 152.425781 167.207031 152.425781 L 156.660156 152.425781 C 155.003906 152.425781 153.648438 151.070312 153.648438 149.414062 C 153.648438 147.757812 155.003906 146.402344 156.660156 146.402344 L 167.207031 146.402344 C 168.863281 146.402344 170.21875 147.757812 170.21875 149.414062 Z M 167.132812 138.265625 L 156.585938 138.265625 C 154.929688 138.265625 153.574219 136.910156 153.574219 135.253906 C 153.574219 133.59375 154.929688 132.238281 156.585938 132.238281 L 167.132812 132.238281 C 168.789062 132.238281 170.144531 133.59375 170.144531 135.253906 C 170.144531 136.910156 168.789062 138.265625 167.132812 138.265625 Z M 167.054688 124.105469 L 156.511719 124.105469 C 154.851562 124.105469 153.496094 122.75 153.496094 121.089844 C 153.496094 119.433594 154.851562 118.078125 156.511719 118.078125 L 167.054688 118.078125 C 168.714844 118.078125 170.070312 119.433594 170.070312 121.089844 C 170.070312 122.75 168.714844 124.105469 167.054688 124.105469 Z M 166.980469 109.945312 L 156.433594 109.945312 C 154.777344 109.945312 153.421875 108.585938 153.421875 106.929688 C 153.421875 105.273438 154.777344 103.917969 156.433594 103.917969 L 166.980469 103.917969 C 168.636719 103.917969 169.992188 105.273438 169.992188 106.929688 C 169.992188 108.585938 168.636719 109.945312 166.980469 109.945312 Z M 167.355469 188.957031 C 169.015625 188.957031 170.371094 190.316406 170.371094 191.972656 C 170.371094 193.628906 169.015625 194.984375 167.355469 194.984375 L 156.8125 194.984375 C 155.15625 194.984375 153.800781 193.628906 153.800781 191.972656 C 153.800781 190.316406 155.15625 188.957031 156.8125 188.957031 Z M 156.847656 203.121094 L 167.394531 203.121094 C 169.050781 203.121094 170.40625 204.476562 170.40625 206.132812 C 170.40625 207.789062 169.050781 209.144531 167.394531 209.144531 L 156.847656 209.144531 C 155.191406 209.144531 153.835938 207.789062 153.835938 206.132812 C 153.835938 204.476562 155.191406 203.121094 156.847656 203.121094 Z M 170.292969 177.773438 C 170.292969 179.429688 168.9375 180.785156 167.28125 180.785156 L 156.738281 180.785156 C 155.078125 180.785156 153.722656 179.429688 153.722656 177.773438 C 153.722656 176.117188 155.078125 174.761719 156.738281 174.761719 L 167.28125 174.761719 C 168.9375 174.761719 170.292969 176.117188 170.292969 177.773438 Z M 167.207031 166.625 L 156.660156 166.625 C 155.003906 166.625 153.648438 165.269531 153.648438 163.613281 C 153.648438 161.953125 155.003906 160.597656 156.660156 160.597656 L 167.207031 160.597656 C 168.863281 160.597656 170.21875 161.957031 170.21875 163.613281 C 170.21875 165.269531 168.863281 166.625 167.207031 166.625 Z M 187.207031 198.5625 L 187.207031 185.457031 L 220.761719 206.285156 L 220.761719 219.011719 L 220.195312 219.011719 Z M 227.765625 219.011719 L 227.765625 160.523438 L 258.574219 176.191406 L 258.574219 219.011719 Z M 139.636719 133.820312 L 139.636719 219.011719 L 108.832031 219.011719 L 108.832031 149.488281 Z M 79.679688 226.019531 L 287.726562 226.019531 C 289.644531 226.019531 291.226562 224.4375 291.226562 222.515625 C 291.226562 220.59375 289.644531 219.011719 287.726562 219.011719 L 265.578125 219.011719 L 265.578125 174.042969 C 265.578125 172.726562 264.828125 171.519531 263.660156 170.917969 L 258.953125 168.507812 L 227.765625 152.652344 L 227.765625 97.589844 C 227.765625 96.386719 227.128906 95.253906 226.109375 94.613281 L 185.546875 69.457031 C 185.511719 69.457031 185.472656 69.417969 185.433594 69.417969 C 185.210938 69.304688 184.984375 69.191406 184.757812 69.117188 C 184.683594 69.082031 184.605469 69.082031 184.570312 69.042969 C 184.304688 68.96875 184.003906 68.929688 183.703125 68.929688 C 183.402344 68.929688 183.136719 68.96875 182.835938 69.042969 C 182.761719 69.082031 182.6875 69.082031 182.648438 69.117188 C 182.421875 69.191406 182.195312 69.304688 181.96875 69.417969 C 181.933594 69.417969 181.894531 69.457031 181.855469 69.457031 L 141.296875 94.613281 C 140.277344 95.253906 139.636719 96.386719 139.636719 97.589844 L 139.636719 125.949219 L 121.710938 135.0625 L 103.785156 144.179688 C 102.617188 144.78125 101.863281 145.988281 101.863281 147.304688 L 101.863281 218.976562 L 79.71875 218.976562 C 77.796875 218.976562 76.214844 220.558594 76.214844 222.476562 C 76.214844 224.398438 77.796875 225.980469 79.71875 225.980469 Z M 220.761719 176.679688 L 187.207031 155.855469 L 187.207031 142.746094 L 220.761719 163.574219 Z M 220.761719 155.328125 L 187.207031 134.5 L 187.207031 121.394531 L 220.761719 142.21875 Z M 220.761719 133.972656 L 187.207031 113.144531 L 187.207031 100.039062 L 220.761719 120.867188 Z M 220.761719 197.996094 L 187.207031 177.171875 L 187.207031 164.0625 L 220.761719 184.890625 Z M 187.207031 218.976562 L 187.207031 206.773438 L 206.902344 218.976562 Z M 220.761719 112.617188 L 187.207031 91.789062 L 187.207031 78.683594 L 220.761719 99.511719 Z M 220.761719 112.617188 " fill-opacity="1" fill-rule="evenodd"/></g><path fill="#753624" d="M 234.695312 173.328125 L 234.695312 211.480469 C 234.695312 212.910156 235.863281 214.117188 237.332031 214.117188 C 238.800781 214.117188 239.96875 212.949219 239.96875 211.480469 L 239.96875 173.328125 C 239.96875 171.859375 238.800781 170.691406 237.332031 170.691406 C 235.902344 170.691406 234.695312 171.859375 234.695312 173.328125 Z M 234.695312 173.328125 " fill-opacity="1" fill-rule="evenodd"/><path fill="#753624" d="M 246.449219 184.402344 L 246.449219 211.480469 C 246.449219 212.910156 247.613281 214.117188 249.085938 214.117188 C 250.554688 214.117188 251.71875 212.949219 251.71875 211.480469 L 251.71875 184.402344 C 251.71875 182.933594 250.554688 181.765625 249.085938 181.765625 C 247.652344 181.765625 246.449219 182.933594 246.449219 184.402344 Z M 246.449219 184.402344 " fill-opacity="1" fill-rule="evenodd"/><path fill="#753624" d="M 132.785156 211.480469 L 132.785156 147.457031 C 132.785156 145.988281 131.617188 144.820312 130.148438 144.820312 C 128.714844 144.820312 127.511719 145.984375 127.511719 147.457031 L 127.511719 211.480469 C 127.511719 212.910156 128.679688 214.117188 130.148438 214.117188 C 131.617188 214.117188 132.785156 212.949219 132.785156 211.480469 Z M 132.785156 211.480469 " fill-opacity="1" fill-rule="evenodd"/><path fill="#753624" d="M 121.03125 211.480469 L 121.03125 158.566406 C 121.03125 157.097656 119.867188 155.929688 118.394531 155.929688 C 116.964844 155.929688 115.761719 157.097656 115.761719 158.566406 L 115.761719 211.480469 C 115.761719 212.910156 116.925781 214.117188 118.394531 214.117188 C 119.828125 214.117188 121.03125 212.949219 121.03125 211.480469 Z M 121.03125 211.480469 " fill-opacity="1" fill-rule="evenodd"/><g fill="#293133" fill-opacity="1"><g transform="translate(105.449055, 286.012728)"><g><path d="M 15.515625 -6.03125 L 15.515625 0 L 11.890625 0 C 9.316406 0 7.304688 -0.628906 5.859375 -1.890625 C 4.421875 -3.148438 3.703125 -5.207031 3.703125 -8.0625 L 3.703125 -17.296875 L 0.875 -17.296875 L 0.875 -23.203125 L 3.703125 -23.203125 L 3.703125 -28.859375 L 10.8125 -28.859375 L 10.8125 -23.203125 L 15.46875 -23.203125 L 15.46875 -17.296875 L 10.8125 -17.296875 L 10.8125 -7.984375 C 10.8125 -7.296875 10.976562 -6.796875 11.3125 -6.484375 C 11.644531 -6.179688 12.203125 -6.03125 12.984375 -6.03125 Z M 15.515625 -6.03125 "/></g></g></g><g fill="#293133" fill-opacity="1"><g transform="translate(129.442886, 286.012728)"><g><path d="M 24.453125 -11.984375 C 24.453125 -11.316406 24.410156 -10.625 24.328125 -9.90625 L 8.234375 -9.90625 C 8.347656 -8.457031 8.8125 -7.351562 9.625 -6.59375 C 10.445312 -5.832031 11.453125 -5.453125 12.640625 -5.453125 C 14.421875 -5.453125 15.65625 -6.195312 16.34375 -7.6875 L 23.921875 -7.6875 C 23.523438 -6.164062 22.820312 -4.796875 21.8125 -3.578125 C 20.800781 -2.359375 19.53125 -1.398438 18 -0.703125 C 16.476562 -0.015625 14.773438 0.328125 12.890625 0.328125 C 10.617188 0.328125 8.59375 -0.15625 6.8125 -1.125 C 5.039062 -2.09375 3.65625 -3.476562 2.65625 -5.28125 C 1.664062 -7.082031 1.171875 -9.191406 1.171875 -11.609375 C 1.171875 -14.015625 1.660156 -16.117188 2.640625 -17.921875 C 3.628906 -19.722656 5.007812 -21.109375 6.78125 -22.078125 C 8.550781 -23.054688 10.585938 -23.546875 12.890625 -23.546875 C 15.140625 -23.546875 17.132812 -23.070312 18.875 -22.125 C 20.625 -21.1875 21.988281 -19.84375 22.96875 -18.09375 C 23.957031 -16.34375 24.453125 -14.304688 24.453125 -11.984375 Z M 17.171875 -13.84375 C 17.171875 -15.070312 16.753906 -16.046875 15.921875 -16.765625 C 15.097656 -17.484375 14.0625 -17.84375 12.8125 -17.84375 C 11.613281 -17.84375 10.601562 -17.492188 9.78125 -16.796875 C 8.96875 -16.109375 8.46875 -15.125 8.28125 -13.84375 Z M 17.171875 -13.84375 "/></g></g></g><g fill="#293133" fill-opacity="1"><g transform="translate(162.168418, 286.012728)"><g><path d="M 9.6875 -19.34375 C 10.519531 -20.613281 11.5625 -21.613281 12.8125 -22.34375 C 14.0625 -23.082031 15.445312 -23.453125 16.96875 -23.453125 L 16.96875 -15.9375 L 15.015625 -15.9375 C 13.242188 -15.9375 11.910156 -15.550781 11.015625 -14.78125 C 10.128906 -14.019531 9.6875 -12.679688 9.6875 -10.765625 L 9.6875 0 L 2.578125 0 L 2.578125 -23.203125 L 9.6875 -23.203125 Z M 9.6875 -19.34375 "/></g></g></g><g fill="#293133" fill-opacity="1"><g transform="translate(187.077009, 286.012728)"><g><path d="M 9.6875 -19.34375 C 10.519531 -20.613281 11.5625 -21.613281 12.8125 -22.34375 C 14.0625 -23.082031 15.445312 -23.453125 16.96875 -23.453125 L 16.96875 -15.9375 L 15.015625 -15.9375 C 13.242188 -15.9375 11.910156 -15.550781 11.015625 -14.78125 C 10.128906 -14.019531 9.6875 -12.679688 9.6875 -10.765625 L 9.6875 0 L 2.578125 0 L 2.578125 -23.203125 L 9.6875 -23.203125 Z M 9.6875 -19.34375 "/></g></g></g><g fill="#293133" fill-opacity="1"><g transform="translate(211.985601, 286.012728)"><g><path d="M 20.75 -5.15625 L 9.859375 -5.15625 L 8.109375 0 L 0.671875 0 L 11.234375 -29.203125 L 19.46875 -29.203125 L 30.03125 0 L 22.5 0 Z M 18.921875 -10.640625 L 15.3125 -21.34375 L 11.734375 -10.640625 Z M 18.921875 -10.640625 "/></g></g></g><g fill="#293133" fill-opacity="1"><g transform="translate(249.74225, 286.012728)"><g><path d="M 9.6875 -29.203125 L 9.6875 0 L 2.578125 0 L 2.578125 -29.203125 Z M 9.6875 -29.203125 "/></g></g></g></svg>